<?xml version="1.0" encoding="UTF-8"?>
<svg id="Layer_1" data-name="Layer 1" xmlns="http://www.w3.org/2000/svg" viewBox="0 0 1000 1000">
  <defs>
    <style>
      .cls-1 {
        fill: #fff;
      }
    </style>
  </defs>
  <path class="cls-1" d="M886.32,486.22c-7.07-102.05-100.47-182.86-214.65-182.86-51.53,0-98.83,16.47-135.86,43.89-.28.22-.6.02-.65-.24-.03-.1-.01-.21.07-.32,20.04-28.47,31.79-63.13,31.79-100.57,0-2.26-.04-4.52-.13-6.77-.03-.9-.07-1.8-.13-2.71-4.91-92.18-81.23-165.44-174.65-165.44h-.53c-55.3.17-104.56,26-136.52,66.21-9.18,11.56-16.93,24.32-22.99,37.99-2.05,4.61-2.54,9.55-1.7,14.21,1.33,7.43,6.07,14.12,13.39,17.51.07.03.16.08.26.11,3.97,1.78,8.17,2.63,12.34,2.63,2.27,0,4.52-.25,6.75-.72.24-.06.48-.14.69-.25,3.53-1.81,6.66-3.57,8.72-5.33,3.92-3.36,7.25-7.51,13.65-10.54,10.82-5.14,23.02-8.03,35.93-8.03,25.78,0,48.73,11.51,63.52,29.44.03.03.04.05.05.07,4.16,5.05,7.66,10.61,10.39,16.56.04.09.07.16.11.25.24.49.46,1,.67,1.51.02.02.03.05.04.08.14.31.27.61.38.92,8.66,22.17-33.71,39.95-49.47,45.48-.02,0-.04.01-.06.02-3.01,1.06-5.04,1.66-5.53,1.75-.02,0-.04,0-.05.02h-.07c-67.26,21.4-162.07,63.53-127.86,124.21.1.66.18,1.25.28,1.92-4.23,17.59-6.64,37.14-7.17,58.42-.15,6.12-.15,12.39,0,18.79.14,5.89.41,11.87.82,17.93.05.88.11,1.77.18,2.66.08,1.17.17,2.34.27,3.51.17,2.14.36,4.29.57,6.45.2,2.1.42,4.2.64,6.32,1.35,12.29,3.21,24.84,5.57,37.54.65,3.48,1.37,7.15,2.13,10.91l1.31,6.16h.02c1.94,8.9,4.14,17.89,6.55,26.84.41,1.52.84,3.06,1.27,4.59.42,1.5.84,2.98,1.27,4.47.31,1.14.64,2.27.97,3.44l1.79,6.02h.02c1.13,3.76,2.36,7.62,3.68,11.68.13.39.25.77.39,1.16,1.95,6.02,4.09,12.19,6.34,18.37.46,1.29.94,2.57,1.42,3.85,26.55,71.69,64.66,134.43,107.57,177.04,1.81,1.82,4.25,2.8,6.74,2.8.98,0,1.97-.15,2.93-.45,1.92-.61,3.84-1.26,5.76-1.94-.03.02-.05.03-.05.03,0,0-.58,45.33-27.91,70.84-27.33,25.51,72.88,38.26,109.32,0,36.44-38.26,83.75-185.66,137.54-214,33.14-17.46,70.07-4.79,93.54,7.51,8.53,4.46,18.1-3.87,14.85-12.92-13.06-36.32-41.49-101.36-81.08-128.05,1.06-1.33,1.77-2.48,2.06-3.4.01-.04.03-.1.05-.14.48-1.53,1.09-3.14,1.77-4.77,2.23-5.64,4.93-10.96,8.03-15.91.25-.4.51-.8.76-1.2,9.67-15,23.05-26.58,38.15-33.72,5.96-2.82,12.2-4.94,18.59-6.3,5.12-1.08,10.43-1.13,15.6-.3,30,4.79,55.92,21.02,72.68,43.84,0,.01.01.01.01.02,8.69,11.84,14.91,25.47,17.93,40.17.96,4.64,1.59,9.39,1.89,14.23.13,2.09.2,4.19.2,6.3,0,13.04-2.47,25.54-7,37.08-.36.92-.47,1.86-.36,2.75.01.17.03.34.07.5.61,2.91,3.47,5.16,6.75,4.5,27.33-5.45,50.98-20.45,66.9-41.2.01-.03.03-.07.06-.1,0-.01.02-.01.02-.03,5.79-8.68,10.85-17.82,15.09-27.33.01-.02.02-.06.03-.09h0s.04-.06.04-.09c.01-.03.02-.07.05-.1,8.51-19.08,13.79-39.65,15.24-61.18.27-3.95.4-7.93.4-11.96s-.15-8.4-.44-12.54ZM248.39,352.33c.47-.16.93-.32,1.45-.48.7-.24,1.4-.47,2.12-.68l.38-.12c31.66-9.71,72.76-9.18,115.7,1.53,18.36,4.56,36.8,10.92,54.82,18.89,16.34,7.25,31.98,15.67,46.48,25.03,1.83,1.16,3.78,2.46,5.97,3.96,1.85,1.23,3.78,2.57,5.92,4.1,43.89,31.27,72.49,69.08,79.63,103.59.9,4.36,1.47,8.66,1.68,12.9.05,1.21.08,2.43.08,3.63,0,2.94-.16,5.84-.52,8.7-.78,6.24-2.45,12.28-4.95,17.92-.51,1.17-1.08,2.33-1.67,3.46-.03-.2-.07-.38-.13-.57l-.06-.22c-.29-1.07-.66-2.14-1.08-3.18-2.58-6.48-5.77-13.02-9.48-19.47-6.4-11.2-14.44-22.41-23.89-33.32l-.28-.32c-12.85-14.83-28.18-29.04-45.56-42.24-3.3-2.5-6.73-5.02-10.2-7.46l-.49-.34c-1.27-.82-31.55-20.43-49.13-29.22-3.11-1.56-6.27-3.09-9.66-4.67-38.48-17.95-78.2-28.97-114.89-31.85-4.32-.35-8.65-.57-12.81-.68-4.14-.12-8.26-.12-12.24,0-4.32.12-8.59.37-12.65.76-3.9.35-7.81.83-11.6,1.43-.02,0-.04.02-.07.02-.83-1.89-1.68-5.06-2.43-8.97-.9-4.65-1.67-10.34-2.11-16.06-.03-.4-.06-.81-.08-1.21-.01-.03-.01-.05-.01-.09,3.7-1.76,7.64-3.35,11.76-4.77ZM221.78,387.99c-.9-1.17-1.71-2.44-2.37-3.79-1.44-2.84-2.36-6.03-2.65-9.37-.07-.76-.11-1.54-.11-2.32,0-1.66.83-3.31,2.2-4.42,2.65-2.13,5.5-4.13,8.53-5.98.19-.13.37-.24.57-.36.24,2.85.57,5.78.98,8.63.71,4.93,1.67,9.7,3.02,13.59.13.39.27.78.41,1.14-.05.01-.08.02-.12.02-2.86.65-5.66,1.36-8.36,2.13l-1.91.55-.19.18ZM360.04,819.38c-.96.33-2.03.08-2.74-.65-11.58-11.92-22.8-25.38-33.48-40.13-.73-1.01-.67-2.42.18-3.33,1.75-1.87,3.8-3.45,6.07-4.67,14.56-7.82,28.68-17.15,39.88-29.37.41-.45.82-.92,1.23-1.38,1.93-2.26-.82-5.44-3.38-3.94-.49.28-.97.56-1.46.83-14.66,7.9-31.1,11.75-47.44,14.13-.33.06-.65.11-.98.17l-11.01,2.46c-19.79-31.55-37.25-67.59-51.29-106.28-2.33-6.42-4.54-12.83-6.57-19.05-1.93-5.91-3.63-11.4-5.2-16.78l-.92-3.15c-.04-.19-.11-.39-.16-.61-3.94-13.68-7.34-27.48-10.13-41l-.64-3.08c-.53-2.58-1-5.09-1.45-7.5-.29-1.53-.56-3.06-.84-4.58-.01-.04-.01-.07-.01-.09-.54-3.08-1.05-6.15-1.54-9.21-1.78-11.31-3.14-22.45-4.05-33.36-.16-1.84-.3-3.68-.43-5.51-.2-2.7-.37-5.39-.5-8.04-.21-3.8-.35-7.56-.44-11.3-.73-30.3,2.16-57.3,8.59-80.24.11-.41.22-.81.34-1.21.25-.92.98-1.63,1.91-1.85,3.28-.78,6.69-1.46,10.2-2.02,3.42-.55,6.97-.99,10.55-1.31,3.76-.35,7.7-.59,11.69-.7,3.7-.11,7.52-.11,11.39,0,3.91.1,7.95.31,12.01.64,34.86,2.74,72.77,13.27,109.58,30.45,3.25,1.52,6.28,2.99,9.28,4.49,16.3,8.15,45.5,26.99,47.54,28.3l.11.08c3.31,2.33,6.57,4.71,9.73,7.12,16.65,12.64,31.29,26.23,43.5,40.37l.32.35c8.67,10.06,16.03,20.33,21.87,30.56,3.17,5.52,5.91,11.07,8.16,16.56.27.67.51,1.36.68,2.06l.15.46.31.97c.75,3.15,1.35,6.36,1.82,9.62.1.76.21,1.52.3,2.28.39,3.05.67,6.16.83,9.31.57,10.99-.19,22.58-2.29,34.62l-.43,2.38c-.17.8-.32,1.63-.47,2.38-.13.65-.27,1.29-.39,1.94-2.08,9.68-4.97,19.54-8.61,29.31-.95,2.54-1.83,4.81-2.7,6.9l-.48,1.21c-6.03,14.54-13.72,28.99-22.84,43.02-6.64,10.21-14.13,20.27-22.28,29.9-5.69,6.73-11.75,13.33-17.98,19.55-2.88,2.87-5.75,5.65-8.57,8.25-27.47,25.52-58.71,45.38-90.34,57.41-2.05.78-4.12,1.54-6.18,2.26Z"/>
  <g>
    <path class="cls-1" d="M613.86,553.65s.03-.1.06-.14c.53-1.57,1.1-3.11,1.71-4.63-.68,1.63-1.29,3.24-1.77,4.77Z"/>
    <path class="cls-1" d="M342.08,281.09h.07s.03-.02.05-.02c.49-.09,2.52-.69,5.53-1.75-1.86.57-3.74,1.15-5.65,1.77Z"/>
  </g>
  <circle class="cls-1" cx="225.32" cy="239.22" r="27.64"/>
  <circle class="cls-1" cx="765.28" cy="649.38" r="13.13"/>
  <path class="cls-1" d="M331.94,633.94c-8.91-16.81-16.05-36.25-21.66-55.02,7.38-1.64,13.62-3.18,15.19-3.86,4.24-1.84,6.18-6.78,4.34-11.01-1.83-4.21-6.7-6.15-10.91-4.38-1.59.59-6.91,1.81-13.12,3.14-8.95-34.23-12.67-62.68-12.74-63.16-.59-4.58-4.78-7.83-9.36-7.24-4.58.59-7.82,4.77-7.23,9.35.25,1.98,3.92,30.12,12.84,64.38-4.12.77-7.39,1.33-8.67,1.45-4.33.02-7.99,3.37-8.3,7.77-.33,4.6,3.14,8.61,7.75,8.94.09,0,.2,0,.33,0,1.93,0,7.14-.84,13.38-2.01,5.95,20.05,13.64,41.07,23.39,59.47,1.5,2.84,4.4,4.45,7.4,4.45,1.32,0,2.66-.32,3.91-.98,4.08-2.17,5.63-7.22,3.47-11.31ZM280.74,567.59c.22,0,.4,0,.52.02-.18,0-.34-.02-.52-.02Z"/>
  <path class="cls-1" d="M624.44,531.77s-5.31,8.74-8.81,17.11c2.24-5.65,4.94-10.96,8.03-15.92.25-.4.51-.8.76-1.19h.01Z"/>
  <path class="cls-1" d="M396.84,232.82c-.24-.54-.46-1.03-.67-1.51.24.49.46,1,.67,1.51Z"/>
</svg>